<svg width="180" height="194" viewBox="0 0 180 194" fill="none" xmlns="http://www.w3.org/2000/svg">
<path fill-rule="evenodd" clip-rule="evenodd" d="M82.4972 185.893C81.9997 185.342 82.0424 184.493 82.5927 183.995C86.8687 180.129 91.2452 176.512 95.5361 172.966C98.6125 170.423 101.645 167.917 104.565 165.381C111.633 159.243 118.282 152.743 124.076 144.575C134.449 129.954 141.691 113.143 142.4 95.1534C142.766 85.8742 140.803 75.4538 136.31 66.7063C131.822 57.9683 124.864 50.9918 115.26 48.349C110.389 47.0085 105.043 46.7225 99.6415 47.3481C103.264 50.9768 106.424 55.2349 108.972 60.2258C115.007 72.0485 109.247 83.497 99.907 90.3532C90.6034 97.1824 77.2184 99.8852 67.1772 93.9189C61.7763 90.7098 58.8266 86.0818 58.1595 80.9398C57.4975 75.8371 59.1004 70.3824 62.4877 65.4645C67.9392 57.5495 76.7287 51.378 86.3881 47.806C88.7798 46.9216 91.2333 46.1934 93.7118 45.637C82.8367 36.8921 68.5901 32.758 54.1538 30.9835C53.4175 30.893 52.894 30.2227 52.9845 29.4864C53.075 28.7501 53.7452 28.2265 54.4815 28.3171C69.8697 30.2086 85.4808 34.7915 97.1173 44.9841C103.557 43.9605 110.052 44.1297 115.973 45.7588C126.49 48.6528 133.969 56.2674 138.7 65.4788C143.426 74.6807 145.467 85.568 145.085 95.2592C144.35 113.909 136.849 131.214 126.267 146.129C120.298 154.543 113.473 161.204 106.326 167.41C103.282 170.053 100.221 172.581 97.1451 175.122C92.9217 178.611 88.6698 182.123 84.3944 185.988C83.8441 186.486 82.9947 186.443 82.4972 185.893ZM96.2846 47.8523C93.2623 48.4095 90.2497 49.2423 87.3199 50.3257C78.0653 53.7481 69.7748 59.6205 64.7001 66.9883C61.5999 71.4895 60.2652 76.2897 60.8236 80.5942C61.377 84.8594 63.8057 88.7907 68.5495 91.6094C77.3672 96.8486 89.5658 94.6115 98.3173 88.1875C107.032 81.7904 111.799 71.6724 106.579 61.4473C103.84 56.081 100.343 51.5951 96.2846 47.8523Z" fill="black" fill-opacity="0.2"/>
<path fill-rule="evenodd" clip-rule="evenodd" d="M91.6177 184.876C91.8747 185.572 91.5189 186.344 90.8229 186.601C90.7503 186.628 90.6463 186.667 90.5149 186.716C89.5102 187.09 86.9005 188.063 84.3978 188.88C82.9894 189.34 81.5709 189.765 80.4743 190.003C79.9402 190.119 79.4018 190.21 78.9532 190.215C78.7419 190.217 78.4285 190.203 78.1152 190.089C77.7774 189.965 77.2234 189.625 77.1011 188.899C76.9271 187.866 77.2909 186.841 77.6754 186.04C78.0763 185.205 78.6308 184.356 79.1116 183.625L79.1508 183.565C79.643 182.817 80.0423 182.209 80.2863 181.704C80.3833 181.503 80.4311 181.366 80.4526 181.283C80.21 180.68 80.4358 179.973 81.0117 179.63C81.6489 179.25 82.4734 179.458 82.8533 180.095C83.176 180.637 83.1885 181.208 83.1171 181.653C83.047 182.09 82.8807 182.509 82.7057 182.871C82.3815 183.543 81.8914 184.288 81.4462 184.964C81.4161 185.01 81.3861 185.055 81.3565 185.101C80.8594 185.857 80.4073 186.557 80.0973 187.203C80.0729 187.254 80.05 187.303 80.0286 187.35C80.974 187.136 82.2331 186.761 83.5642 186.326C86.0067 185.529 88.5558 184.579 89.5715 184.2C89.707 184.15 89.8153 184.109 89.8923 184.081C90.5882 183.824 91.3607 184.18 91.6177 184.876ZM78.8817 187.527C78.8818 187.527 78.885 187.527 78.891 187.528C78.8846 187.528 78.8816 187.527 78.8817 187.527Z" fill="black" fill-opacity="0.2"/>
</svg>
