<svg width="58" height="21" viewBox="0 0 58 21" fill="none" xmlns="http://www.w3.org/2000/svg">
<path fill-rule="evenodd" clip-rule="evenodd" d="M28.2274 3.42787C28.5962 3.41569 28.9049 3.70519 28.9171 4.07448C28.9555 5.24173 28.995 7.54668 29.0251 9.30887L29.027 9.41987C29.0344 9.85347 29.0412 10.2508 29.0473 10.5869C29.0686 10.805 29.0782 11.0148 29.0782 11.2096C29.0782 11.4811 29.0777 11.6744 29.072 11.7401L29.0719 11.7407C29.0717 11.7433 29.0712 11.7492 29.0703 11.7575C29.0706 11.7594 29.0708 11.7613 29.0711 11.7632C29.1246 12.1288 28.8721 12.4686 28.507 12.5222C26.9507 12.7506 25.7774 12.7274 24.9036 12.5155C24.0188 12.3009 23.4052 11.8816 23.0593 11.3074C22.7195 10.7434 22.6992 10.1312 22.7932 9.64181C22.8846 9.16643 23.0995 8.72234 23.3518 8.44885C24.0727 7.66765 25.1941 6.93467 26.4473 7.0897C26.9304 7.14947 27.3305 7.33128 27.6587 7.58447C27.6347 6.25147 27.6079 4.91454 27.5817 4.11857C27.5695 3.74928 27.8586 3.44004 28.2274 3.42787ZM27.7124 10.667C27.6641 10.2179 27.5548 9.74622 27.3695 9.34865C27.1104 8.79269 26.756 8.47611 26.2835 8.41765C25.6485 8.3391 24.9236 8.71698 24.3331 9.35693C24.2809 9.41352 24.159 9.61504 24.1053 9.89466C24.0542 10.1603 24.0806 10.4125 24.2033 10.6162C24.3199 10.8097 24.5847 11.0614 25.2181 11.215C25.7721 11.3494 26.5778 11.3993 27.7242 11.274C27.7207 11.1098 27.7167 10.9042 27.7124 10.667Z" fill="url(#paint0_linear_1_2178)"/>
<path fill-rule="evenodd" clip-rule="evenodd" d="M38.6339 3.42788C39.0027 3.41571 39.3115 3.70521 39.3237 4.0745C39.3621 5.24175 39.4015 7.5467 39.4316 9.30888L39.4335 9.41989C39.441 9.85348 39.4478 10.2509 39.4539 10.5869C39.4752 10.805 39.4847 11.0148 39.4847 11.2097C39.4847 11.4811 39.4842 11.6744 39.4785 11.7401L39.4785 11.7407C39.4782 11.7434 39.4777 11.7492 39.4768 11.7575C39.4771 11.7594 39.4774 11.7613 39.4777 11.7632C39.5312 12.1288 39.2786 12.4686 38.9136 12.5222C37.3572 12.7506 36.184 12.7274 35.3102 12.5155C34.4253 12.3009 33.8118 11.8816 33.4658 11.3074C33.126 10.7434 33.1057 10.1312 33.1998 9.64183C33.2911 9.16644 33.506 8.72236 33.7584 8.44886C34.4792 7.66766 35.6006 6.93468 36.8539 7.08972C37.337 7.14948 37.7371 7.3313 38.0653 7.58448C38.0413 6.25149 38.0145 4.91455 37.9883 4.11858C37.9761 3.7493 38.2652 3.44006 38.6339 3.42788ZM38.119 10.667C38.0707 10.2179 37.9613 9.74624 37.7761 9.34867C37.517 8.7927 37.1626 8.47612 36.6901 8.41766C36.0551 8.33912 35.3302 8.717 34.7397 9.35695C34.6875 9.41353 34.5655 9.61505 34.5118 9.89468C34.4608 10.1603 34.4871 10.4125 34.6099 10.6162C34.7265 10.8098 34.9913 11.0614 35.6246 11.215C36.1787 11.3494 36.9843 11.3994 38.1307 11.2741C38.1272 11.1098 38.1233 10.9042 38.119 10.667Z" fill="url(#paint1_linear_1_2178)"/>
<path fill-rule="evenodd" clip-rule="evenodd" d="M44.4766 8.15105C44.4756 8.14215 44.4744 8.13327 44.473 8.12441C44.4702 8.10614 44.4666 8.08586 44.4619 8.06446C44.4541 8.02936 44.4339 7.94537 44.3813 7.85402C44.3508 7.80087 44.2751 7.68858 44.139 7.60607C43.8904 7.34823 43.513 6.98788 43.0869 6.78026C42.8047 6.64278 42.4319 6.53653 42.0237 6.62904C41.6036 6.72424 41.2739 7.00027 41.0278 7.37629C40.6712 7.92132 40.4423 8.6195 40.3277 9.29939C40.2128 9.98127 40.2027 10.7057 40.3326 11.3203C40.4279 11.7715 40.6789 12.2001 41.094 12.458C41.5296 12.7286 42.0622 12.7575 42.5721 12.5384C43.1378 12.2953 43.5257 11.8429 43.7855 11.3874C43.9396 11.7558 44.1394 12.1151 44.4012 12.4337C44.6344 12.7174 45.0578 12.762 45.347 12.5332C45.6362 12.3044 45.6816 11.8888 45.4484 11.6051C45.0513 11.1218 44.8272 10.4198 44.6958 9.69753C44.6119 9.23586 44.5367 8.78698 44.4887 8.34066C44.4887 8.33994 44.4883 8.33103 44.4873 8.30504L44.4873 8.30252C44.4863 8.27571 44.4845 8.22477 44.4793 8.17418C44.4785 8.16726 44.4777 8.1595 44.4766 8.15105ZM43.039 8.39043C42.8552 8.20983 42.6677 8.04986 42.4886 7.96259C42.4308 7.93445 42.3889 7.92198 42.3617 7.91713C42.3372 7.91275 42.3276 7.91497 42.3265 7.91523L42.3264 7.91524C42.3253 7.91549 42.3228 7.91614 42.3182 7.91833C42.3135 7.92058 42.3044 7.92551 42.2912 7.93571C42.2642 7.95647 42.2179 8.00083 42.1598 8.08958C41.9318 8.43792 41.7502 8.94966 41.6549 9.51472C41.5601 10.0778 41.5612 10.6334 41.6498 11.0522C41.6874 11.2303 41.7682 11.3145 41.8136 11.3427C41.8346 11.3558 41.8554 11.3625 41.8807 11.3639C41.9068 11.3653 41.9563 11.3619 42.0324 11.3292C42.2559 11.2332 42.4708 11.0144 42.6528 10.6673C42.8318 10.3261 42.945 9.92327 42.998 9.57406C43.0315 9.35357 43.034 9.13977 43.037 8.87772C43.0379 8.79697 43.0388 8.71164 43.0408 8.62012C43.0407 8.62607 43.0405 8.63251 43.0389 8.5649C43.0378 8.52013 43.0368 8.45744 43.039 8.39043Z" fill="url(#paint2_linear_1_2178)"/>
<path fill-rule="evenodd" clip-rule="evenodd" d="M46.174 6.59966C46.5494 6.55278 46.8922 6.81533 46.9397 7.18609C47.0983 8.42496 47.3387 9.66313 47.6984 10.8735C47.7004 10.8802 47.7033 10.8908 47.7071 10.9049C47.7259 10.9739 47.7672 11.1258 47.8352 11.3025C47.8435 11.3241 47.8518 11.3451 47.8602 11.3653C48.9123 10.8522 49.5771 10.1729 49.7655 9.56751C49.896 9.14807 49.8999 8.68125 49.8554 8.16549C49.8316 8.05966 49.8091 7.95275 49.7888 7.84516C49.7682 7.73579 49.7542 7.51153 49.7504 7.4036C49.7494 7.37306 49.7484 7.33281 49.7495 7.29517L49.7495 7.2942C49.7499 7.28146 49.7512 7.2358 49.7603 7.18317C49.7603 7.18304 49.7604 7.18276 49.7604 7.18236C49.7621 7.17131 49.7789 7.06217 49.8475 6.94792C49.8794 6.89492 50.0031 6.70263 50.2705 6.63624C50.5841 6.55842 50.8132 6.71425 50.9012 6.79387C50.9862 6.87079 51.0301 6.95006 51.0447 6.97719C51.0642 7.01353 51.0764 7.0444 51.083 7.06192C51.0962 7.0972 51.1039 7.12682 51.1075 7.14087C51.1152 7.17162 51.1205 7.20034 51.1237 7.21901C51.1307 7.25965 51.1379 7.31049 51.1453 7.36903C51.1687 7.55325 51.1937 7.75183 51.2135 7.96023C51.255 8.13673 51.3021 8.31691 51.352 8.50392C51.3646 8.55101 51.3774 8.5987 51.3904 8.64688C51.4625 8.91536 51.5389 9.19938 51.6029 9.48346C51.7893 10.3105 51.9091 11.1485 52.0245 11.9562C52.0619 12.2177 52.0988 12.4759 52.1374 12.7296C52.2388 13.3966 52.3982 14.0559 52.5667 14.7521C52.592 14.857 52.6176 14.9626 52.6432 15.0692C52.6661 15.1649 52.6879 15.2533 52.7082 15.3361C52.8539 15.928 52.928 16.229 52.8527 16.7959C52.7854 17.3019 52.6177 17.7398 52.3257 18.0809C52.0291 18.4275 51.6475 18.6235 51.2469 18.7126C50.4894 18.8811 49.6282 18.6765 48.906 18.419C48.1575 18.1521 47.4295 17.7797 46.8887 17.4848C46.6994 17.3815 46.5257 17.2837 46.3846 17.2042C46.3254 17.1708 46.272 17.1407 46.2255 17.1148C46.1475 17.0712 46.093 17.0416 46.0567 17.0232C45.7818 16.9389 45.5801 16.6881 45.5749 16.3884C45.5683 16.0148 45.8697 15.7066 46.2481 15.7002C46.3511 15.6984 46.4315 15.7199 46.4603 15.7279C46.4989 15.7387 46.5313 15.7508 46.5529 15.7594C46.5962 15.7767 46.6375 15.7966 46.6698 15.8128C46.7362 15.846 46.8166 15.8902 46.8997 15.9365C46.9542 15.967 47.0124 15.9998 47.0746 16.0348C47.2126 16.1126 47.3704 16.2015 47.5512 16.3001C48.0722 16.5843 48.7255 16.9158 49.3714 17.1461C50.0435 17.3857 50.5896 17.4716 50.9458 17.3924C51.1021 17.3576 51.204 17.2952 51.2791 17.2074C51.359 17.1141 51.4512 16.9417 51.494 16.6198C51.535 16.3114 51.5208 16.253 51.3723 15.6402C51.3536 15.5632 51.3328 15.4774 51.3098 15.3813C51.2852 15.2788 51.2602 15.1757 51.235 15.0718C51.0675 14.3801 50.893 13.6594 50.7822 12.9305C50.7397 12.6507 50.7004 12.3761 50.6616 12.105C50.6093 11.7393 50.5579 11.3801 50.5007 11.0237C49.9663 11.6986 49.1749 12.2545 48.31 12.6531C48.287 12.6638 48.172 12.7144 48.0412 12.7574C47.9776 12.7783 47.8862 12.8055 47.7889 12.821C47.7405 12.8288 47.67 12.8371 47.5894 12.8337C47.5191 12.8307 47.372 12.8167 47.2203 12.7258C46.9925 12.5893 46.85 12.3775 46.7707 12.243C46.6804 12.0897 46.6084 11.924 46.5543 11.7834C46.4471 11.5051 46.377 11.2325 46.3835 11.2546C45.9994 9.96201 45.746 8.65133 45.5802 7.35587C45.5327 6.98511 45.7985 6.64655 46.174 6.59966ZM47.9895 11.6136C47.9895 11.6136 47.9893 11.6134 47.9889 11.613C47.9893 11.6134 47.9895 11.6136 47.9895 11.6136Z" fill="url(#paint3_linear_1_2178)"/>
<path fill-rule="evenodd" clip-rule="evenodd" d="M9.55869 7.30962C9.58781 7.29438 9.61974 7.28045 9.65461 7.26871C10.0652 7.13043 10.3325 7.42102 10.3818 7.48178C10.4485 7.56392 10.4795 7.64248 10.4875 7.66281L10.4877 7.66321C10.5002 7.69505 10.5079 7.72151 10.5119 7.73588C10.5199 7.76524 10.5247 7.78985 10.5269 7.80179C10.5318 7.82805 10.5352 7.85354 10.5376 7.87213C10.5427 7.91199 10.5481 7.96405 10.554 8.02741C10.5734 8.23508 10.5936 8.45557 10.6094 8.6845C10.6443 8.88718 10.6837 9.0927 10.7252 9.30381C10.7355 9.35615 10.7459 9.40896 10.7564 9.46217C10.8148 9.7576 10.8756 10.0653 10.9266 10.3732C11.0758 11.2736 11.1714 12.1831 11.2645 13.0695C11.2949 13.3586 11.325 13.6453 11.3567 13.9283C11.4172 14.4702 11.4987 14.8659 11.5928 15.323C11.6482 15.5923 11.708 15.8828 11.7705 16.2371C11.9313 17.1487 11.9977 17.6916 11.9346 18.3375C11.8328 19.3797 11.4127 20.1522 10.5886 20.4015C9.88221 20.6152 9.11166 20.3503 8.52671 20.0666C7.90572 19.7654 7.30707 19.3482 6.86895 19.0232C6.715 18.9089 6.57293 18.8 6.45858 18.7124C6.41107 18.676 6.36835 18.6432 6.33155 18.6153C6.2775 18.5743 6.23911 18.5458 6.21272 18.5271C5.98496 18.4227 5.82408 18.1924 5.81801 17.9215C5.80958 17.5456 6.10236 17.234 6.47195 17.2254C6.60304 17.2224 6.70251 17.2594 6.73251 17.2707C6.77585 17.2871 6.81065 17.305 6.83171 17.3165C6.87445 17.3397 6.91322 17.3652 6.94059 17.3839C6.99769 17.4228 7.06525 17.4733 7.13233 17.5242C7.1772 17.5583 7.22469 17.5947 7.27523 17.6334C7.38652 17.7187 7.51256 17.8154 7.6579 17.9232C8.0783 18.2351 8.59656 18.592 9.10297 18.8376C9.64543 19.1007 10.0128 19.1552 10.2069 19.0965C10.2834 19.0734 10.5264 18.9815 10.6024 18.2029C10.6461 17.7562 10.6103 17.3705 10.4528 16.4776C10.4045 16.2037 10.3514 15.9436 10.2983 15.6838C10.1956 15.1806 10.0932 14.6789 10.0265 14.0821C9.99259 13.7788 9.9611 13.4794 9.92991 13.1827C9.88738 12.7783 9.8454 12.379 9.79856 11.9821C9.76672 12.0177 9.73448 12.0526 9.702 12.0868C9.3139 12.4956 8.78643 12.9086 8.18467 13.1426C7.57333 13.3803 6.83966 13.4468 6.1325 13.0654C5.44025 12.692 4.89889 11.956 4.51206 10.867L4.49748 10.8259L4.48817 10.7833C4.31023 9.9688 4.36265 8.73591 5.27672 7.89236C6.12884 7.10598 7.52356 6.8496 9.55869 7.30962ZM9.27758 8.8415C9.26604 8.77234 9.25492 8.70286 9.24436 8.63313C7.41346 8.22244 6.55616 8.55012 6.17634 8.90064C5.76922 9.27635 5.6767 9.89532 5.7865 10.4471C6.10754 11.3304 6.47525 11.7091 6.75973 11.8626C7.03385 12.0104 7.34645 12.0109 7.70651 11.8709C8.07615 11.7271 8.44522 11.4505 8.73894 11.1411C8.88329 10.9891 8.99932 10.8397 9.08142 10.7113C9.12232 10.6473 9.15207 10.5928 9.17227 10.5496C9.18225 10.5282 9.18909 10.5113 9.19358 10.4989C9.19786 10.4871 9.19925 10.4813 9.19926 10.4813L9.19924 10.4814C9.31392 9.98014 9.31536 9.42769 9.27758 8.8415Z" fill="url(#paint4_linear_1_2178)"/>
<path fill-rule="evenodd" clip-rule="evenodd" d="M13.3214 6.91478C13.7526 6.80704 14.2033 6.83515 14.561 6.86454L14.5928 6.86716L14.6242 6.87273C15.0747 6.95259 15.4038 7.14599 15.6438 7.40186C15.8333 7.6039 15.9535 7.83818 16.0175 7.96286C16.026 7.97934 16.0334 7.99391 16.04 8.00623C16.5131 8.90004 16.79 9.90931 16.475 11.0255C16.3551 11.4505 16.1177 11.8959 15.8048 12.2659C15.4955 12.6316 15.0639 12.98 14.5313 13.1136C13.8457 13.2855 13.2322 13.0458 12.7897 12.7627C12.3802 12.5006 11.8589 12.0692 11.6407 11.4347C11.3982 10.7294 11.5037 9.93136 11.6184 9.38213C11.627 9.34066 11.6362 9.29533 11.6459 9.24714C11.6817 9.07074 11.7252 8.85587 11.7794 8.65037C11.8487 8.38774 11.9494 8.08154 12.1149 7.81025C12.4228 7.30582 12.8496 7.03267 13.3214 6.91478ZM13.6523 8.22552C13.5042 8.26253 13.3866 8.33048 13.2761 8.51163C13.211 8.61836 13.1501 8.77804 13.0933 8.99348C13.0501 9.15729 13.0172 9.31938 12.9826 9.48978C12.9715 9.5445 12.9602 9.60008 12.9484 9.65685C12.8423 10.1653 12.8087 10.6561 12.926 10.9972C12.9955 11.1992 13.2039 11.4208 13.5246 11.6261C13.8027 11.804 14.0224 11.8475 14.1993 11.8031C14.3632 11.762 14.567 11.6304 14.7653 11.3959C14.9599 11.1658 15.1021 10.8908 15.1671 10.6602C15.3554 9.99316 15.2163 9.35053 14.838 8.63593C14.8266 8.61426 14.816 8.59423 14.8062 8.57564C14.7338 8.43812 14.7031 8.3798 14.6506 8.32389C14.6185 8.28961 14.5617 8.23927 14.4136 8.20854C14.0698 8.1814 13.8348 8.17992 13.6523 8.22552Z" fill="url(#paint5_linear_1_2178)"/>
<path fill-rule="evenodd" clip-rule="evenodd" d="M18.9468 6.91478C19.378 6.80704 19.8287 6.83515 20.1864 6.86454L20.2182 6.86716L20.2497 6.87273C20.7001 6.95259 21.0292 7.14599 21.2692 7.40186C21.4587 7.6039 21.579 7.83818 21.643 7.96286C21.6514 7.97934 21.6589 7.99391 21.6654 8.00623C22.1385 8.90004 22.4154 9.90931 22.1004 11.0255C21.9805 11.4505 21.7431 11.8959 21.4302 12.2659C21.121 12.6316 20.6894 12.98 20.1568 13.1136C19.4711 13.2855 18.8577 13.0458 18.4152 12.7627C18.0057 12.5006 17.4844 12.0692 17.2662 11.4347C17.0237 10.7294 17.1292 9.93136 17.2438 9.38213C17.2525 9.34066 17.2616 9.29533 17.2714 9.24714C17.3071 9.07074 17.3506 8.85587 17.4048 8.65037C17.4741 8.38774 17.5748 8.08154 17.7404 7.81025C18.0482 7.30582 18.475 7.03267 18.9468 6.91478ZM19.2777 8.22552C19.1296 8.26253 19.0121 8.33048 18.9015 8.51163C18.8364 8.61836 18.7756 8.77804 18.7187 8.99348C18.6755 9.15729 18.6426 9.31938 18.6081 9.48978C18.597 9.5445 18.5857 9.60008 18.5739 9.65685C18.4677 10.1653 18.4342 10.6561 18.5515 10.9972C18.6209 11.1992 18.8294 11.4208 19.1501 11.6261C19.4282 11.804 19.6478 11.8475 19.8247 11.8031C19.9887 11.762 20.1925 11.6304 20.3907 11.3959C20.5853 11.1658 20.7275 10.8908 20.7926 10.6602C20.9808 9.99316 20.8417 9.35053 20.4635 8.63593C20.452 8.61426 20.4415 8.59423 20.4317 8.57564C20.3592 8.43812 20.3285 8.3798 20.2761 8.32389C20.2439 8.28961 20.1871 8.23927 20.0391 8.20854C19.6953 8.1814 19.4602 8.17992 19.2777 8.22552Z" fill="url(#paint6_linear_1_2178)"/>
<path fill-rule="evenodd" clip-rule="evenodd" d="M53.7643 0.639514C53.9802 0.685296 54.118 0.89739 54.0722 1.11324C53.8849 1.99655 53.7081 2.87966 53.5414 3.76756C53.5007 3.98442 53.2918 4.12721 53.075 4.0865C52.8581 4.04578 52.7153 3.83697 52.756 3.62011C52.9239 2.72594 53.102 1.8367 53.2906 0.947447C53.3364 0.731598 53.5485 0.593731 53.7643 0.639514Z" fill="url(#paint7_linear_1_2178)"/>
<path fill-rule="evenodd" clip-rule="evenodd" d="M56.7965 2.40959C56.9362 2.58039 56.911 2.83209 56.7402 2.9718L54.4672 4.83106C54.2964 4.97076 54.0447 4.94556 53.905 4.77477C53.7653 4.60397 53.7905 4.35227 53.9613 4.21257L56.2343 2.3533C56.4051 2.2136 56.6568 2.2388 56.7965 2.40959Z" fill="url(#paint8_linear_1_2178)"/>
<path fill-rule="evenodd" clip-rule="evenodd" d="M54.3498 5.7805C54.3741 5.56119 54.5717 5.40317 54.791 5.42754L57.1881 5.69388C57.4074 5.71825 57.5654 5.91578 57.5411 6.13508C57.5167 6.35439 57.3192 6.51241 57.0999 6.48804L54.7027 6.2217C54.4834 6.19733 54.3254 5.9998 54.3498 5.7805Z" fill="url(#paint9_linear_1_2178)"/>
<path fill-rule="evenodd" clip-rule="evenodd" d="M4.05753 0.639514C3.84168 0.685296 3.70382 0.89739 3.7496 1.11324C3.93695 1.99655 4.11376 2.87966 4.28047 3.76756C4.32118 3.98442 4.52999 4.12721 4.74685 4.0865C4.96371 4.04578 5.10651 3.83697 5.06579 3.62011C4.8979 2.72594 4.71987 1.8367 4.53126 0.947447C4.48548 0.731598 4.27338 0.593731 4.05753 0.639514Z" fill="url(#paint10_linear_1_2178)"/>
<path fill-rule="evenodd" clip-rule="evenodd" d="M1.02541 2.40959C0.885707 2.58039 0.910909 2.83209 1.0817 2.9718L3.35471 4.83106C3.5255 4.97076 3.77721 4.94556 3.91691 4.77477C4.05661 4.60397 4.03141 4.35227 3.86062 4.21257L1.58761 2.3533C1.41682 2.2136 1.16511 2.2388 1.02541 2.40959Z" fill="url(#paint11_linear_1_2178)"/>
<path fill-rule="evenodd" clip-rule="evenodd" d="M3.47213 5.7805C3.44776 5.56119 3.25023 5.40317 3.03093 5.42754L0.633788 5.69388C0.414486 5.71825 0.256461 5.91578 0.280828 6.13508C0.305194 6.35439 0.502727 6.51241 0.722028 6.48804L3.11917 6.2217C3.33847 6.19733 3.4965 5.9998 3.47213 5.7805Z" fill="url(#paint12_linear_1_2178)"/>
<defs>
<linearGradient id="paint0_linear_1_2178" x1="22.7464" y1="8.05397" x2="29.0779" y2="8.05397" gradientUnits="userSpaceOnUse">
<stop stop-color="#991EEB"/>
<stop offset="0.399" stop-color="#5822B4"/>
<stop offset="0.727" stop-color="#5822B4"/>
<stop offset="1" stop-color="#991EEB"/>
</linearGradient>
<linearGradient id="paint1_linear_1_2178" x1="33.153" y1="8.05398" x2="39.4844" y2="8.05398" gradientUnits="userSpaceOnUse">
<stop stop-color="#991EEB"/>
<stop offset="0.399" stop-color="#5822B4"/>
<stop offset="0.727" stop-color="#5822B4"/>
<stop offset="1" stop-color="#991EEB"/>
</linearGradient>
<linearGradient id="paint2_linear_1_2178" x1="40.2397" y1="9.63798" x2="45.5971" y2="9.63798" gradientUnits="userSpaceOnUse">
<stop stop-color="#991EEB"/>
<stop offset="0.399" stop-color="#5822B4"/>
<stop offset="0.727" stop-color="#5822B4"/>
<stop offset="1" stop-color="#991EEB"/>
</linearGradient>
<linearGradient id="paint3_linear_1_2178" x1="45.5766" y1="12.6817" x2="52.8821" y2="12.6817" gradientUnits="userSpaceOnUse">
<stop stop-color="#991EEB"/>
<stop offset="0.399" stop-color="#5822B4"/>
<stop offset="0.727" stop-color="#5822B4"/>
<stop offset="1" stop-color="#991EEB"/>
</linearGradient>
<linearGradient id="paint4_linear_1_2178" x1="4.40872" y1="13.7777" x2="11.9577" y2="13.7777" gradientUnits="userSpaceOnUse">
<stop stop-color="#991EEB"/>
<stop offset="0.399" stop-color="#5822B4"/>
<stop offset="0.727" stop-color="#5822B4"/>
<stop offset="1" stop-color="#991EEB"/>
</linearGradient>
<linearGradient id="paint5_linear_1_2178" x1="11.4952" y1="10.0034" x2="16.6091" y2="10.0034" gradientUnits="userSpaceOnUse">
<stop stop-color="#991EEB"/>
<stop offset="0.399" stop-color="#5822B4"/>
<stop offset="0.727" stop-color="#5822B4"/>
<stop offset="1" stop-color="#991EEB"/>
</linearGradient>
<linearGradient id="paint6_linear_1_2178" x1="17.1207" y1="10.0034" x2="22.2345" y2="10.0034" gradientUnits="userSpaceOnUse">
<stop stop-color="#991EEB"/>
<stop offset="0.399" stop-color="#5822B4"/>
<stop offset="0.727" stop-color="#5822B4"/>
<stop offset="1" stop-color="#991EEB"/>
</linearGradient>
<linearGradient id="paint7_linear_1_2178" x1="52.7495" y1="2.36139" x2="54.0809" y2="2.36139" gradientUnits="userSpaceOnUse">
<stop stop-color="#991EEB"/>
<stop offset="0.399" stop-color="#5822B4"/>
<stop offset="0.727" stop-color="#5822B4"/>
<stop offset="1" stop-color="#991EEB"/>
</linearGradient>
<linearGradient id="paint8_linear_1_2178" x1="53.9876" y1="3.38027" x2="56.7146" y2="3.803" gradientUnits="userSpaceOnUse">
<stop stop-color="#991EEB"/>
<stop offset="0.399" stop-color="#5822B4"/>
<stop offset="0.727" stop-color="#5822B4"/>
<stop offset="1" stop-color="#991EEB"/>
</linearGradient>
<linearGradient id="paint9_linear_1_2178" x1="54.3481" y1="5.95758" x2="57.5433" y2="5.95758" gradientUnits="userSpaceOnUse">
<stop stop-color="#991EEB"/>
<stop offset="0.399" stop-color="#5822B4"/>
<stop offset="0.727" stop-color="#5822B4"/>
<stop offset="1" stop-color="#991EEB"/>
</linearGradient>
<linearGradient id="paint10_linear_1_2178" x1="5.07237" y1="2.36139" x2="3.74091" y2="2.36139" gradientUnits="userSpaceOnUse">
<stop stop-color="#991EEB"/>
<stop offset="0.399" stop-color="#5822B4"/>
<stop offset="0.727" stop-color="#5822B4"/>
<stop offset="1" stop-color="#991EEB"/>
</linearGradient>
<linearGradient id="paint11_linear_1_2178" x1="3.83427" y1="3.38027" x2="1.10733" y2="3.803" gradientUnits="userSpaceOnUse">
<stop stop-color="#991EEB"/>
<stop offset="0.399" stop-color="#5822B4"/>
<stop offset="0.727" stop-color="#5822B4"/>
<stop offset="1" stop-color="#991EEB"/>
</linearGradient>
<linearGradient id="paint12_linear_1_2178" x1="3.47377" y1="5.95758" x2="0.278553" y2="5.95758" gradientUnits="userSpaceOnUse">
<stop stop-color="#991EEB"/>
<stop offset="0.399" stop-color="#5822B4"/>
<stop offset="0.727" stop-color="#5822B4"/>
<stop offset="1" stop-color="#991EEB"/>
</linearGradient>
</defs>
</svg>
