<svg width="39" height="39" viewBox="0 0 39 39" fill="none" xmlns="http://www.w3.org/2000/svg">
<mask id="path-1-inside-1_1_2195" fill="white">
<path fill-rule="evenodd" clip-rule="evenodd" d="M21.6938 0.962524L17.5385 0.962524V14.678L7.57237 4.71185L4.66691 7.61731L14.6334 17.5838H0.917725L0.917725 21.7391H14.6301L4.65914 31.7101L7.56623 34.6172L17.5385 24.6449L17.5385 38.3602H21.6938L21.6938 24.6442L31.6674 34.6178L34.5729 31.7124L24.5996 21.7391L38.3154 21.7391V17.5838L24.5996 17.5838L34.5656 7.6178L31.6585 4.71072L21.6938 14.6754V0.962524Z"/>
</mask>
<path fill-rule="evenodd" clip-rule="evenodd" d="M21.6938 0.962524L17.5385 0.962524V14.678L7.57237 4.71185L4.66691 7.61731L14.6334 17.5838H0.917725L0.917725 21.7391H14.6301L4.65914 31.7101L7.56623 34.6172L17.5385 24.6449L17.5385 38.3602H21.6938L21.6938 24.6442L31.6674 34.6178L34.5729 31.7124L24.5996 21.7391L38.3154 21.7391V17.5838L24.5996 17.5838L34.5656 7.6178L31.6585 4.71072L21.6938 14.6754V0.962524Z" fill="url(#paint0_linear_1_2195)"/>
<path d="M17.5385 0.962524V0.11806H16.694V0.962524H17.5385ZM21.6938 0.962524L22.5383 0.962524V0.11806L21.6938 0.11806V0.962524ZM17.5385 14.678L16.9414 15.2751L18.383 16.7167V14.678H17.5385ZM7.57237 4.71185L8.1695 4.11473L7.57237 3.5176L6.97524 4.11473L7.57237 4.71185ZM4.66691 7.61731L4.06979 7.02019L3.47266 7.61731L4.06979 8.21444L4.66691 7.61731ZM14.6334 17.5838V18.4283H16.6721L15.2305 16.9867L14.6334 17.5838ZM0.917725 17.5838V16.7393H0.0732606V17.5838H0.917725ZM0.917725 21.7391H0.0732606L0.0732606 22.5836H0.917725L0.917725 21.7391ZM14.6301 21.7391L15.2273 22.3362L16.6688 20.8946H14.6301V21.7391ZM4.65914 31.7101L4.06202 31.113L3.46489 31.7101L4.06202 32.3072L4.65914 31.7101ZM7.56623 34.6172L6.9691 35.2143L7.56623 35.8114L8.16335 35.2143L7.56623 34.6172ZM17.5385 24.6449H18.383V22.6062L16.9414 24.0478L17.5385 24.6449ZM17.5385 38.3602H16.694V39.2047H17.5385V38.3602ZM21.6938 38.3602V39.2047H22.5383V38.3602H21.6938ZM21.6938 24.6442L22.2909 24.0471L20.8493 22.6055V24.6442H21.6938ZM31.6674 34.6178L31.0703 35.215L31.6674 35.8121L32.2646 35.215L31.6674 34.6178ZM34.5729 31.7124L35.17 32.3095L35.7672 31.7124L35.17 31.1153L34.5729 31.7124ZM24.5996 21.7391V20.8946H22.5609L24.0025 22.3362L24.5996 21.7391ZM38.3154 21.7391V22.5836H39.1599V21.7391H38.3154ZM38.3154 17.5838H39.1599V16.7393H38.3154V17.5838ZM24.5996 17.5838L24.0025 16.9867L22.5609 18.4283H24.5996V17.5838ZM34.5656 7.6178L35.1627 8.21493L35.7599 7.6178L35.1627 7.02068L34.5656 7.6178ZM31.6585 4.71072L32.2556 4.11359L31.6585 3.51647L31.0614 4.11359L31.6585 4.71072ZM21.6938 14.6754H20.8493V16.7141L22.2909 15.2726L21.6938 14.6754ZM17.5385 1.80699L21.6938 1.80699V0.11806L17.5385 0.11806V1.80699ZM18.383 14.678V0.962524L16.694 0.962524V14.678L18.383 14.678ZM6.97524 5.30898L16.9414 15.2751L18.1356 14.0809L8.1695 4.11473L6.97524 5.30898ZM5.26404 8.21444L8.1695 5.30898L6.97524 4.11473L4.06979 7.02019L5.26404 8.21444ZM15.2305 16.9867L5.26404 7.02019L4.06979 8.21444L14.0363 18.1809L15.2305 16.9867ZM0.917725 18.4283H14.6334L14.6334 16.7393H0.917725L0.917725 18.4283ZM1.76219 21.7391L1.76219 17.5838H0.0732606L0.0732606 21.7391H1.76219ZM14.6301 20.8946H0.917725L0.917725 22.5836H14.6301V20.8946ZM5.25627 32.3072L15.2273 22.3362L14.033 21.142L4.06202 31.113L5.25627 32.3072ZM8.16335 34.0201L5.25627 31.113L4.06202 32.3072L6.9691 35.2143L8.16335 34.0201ZM16.9414 24.0478L6.9691 34.0201L8.16335 35.2143L18.1356 25.242L16.9414 24.0478ZM18.383 38.3602L18.383 24.6449H16.694V38.3602H18.383ZM21.6938 37.5158H17.5385V39.2047H21.6938V37.5158ZM20.8493 24.6442L20.8493 38.3602H22.5383L22.5383 24.6442H20.8493ZM32.2646 34.0207L22.2909 24.0471L21.0967 25.2413L31.0703 35.215L32.2646 34.0207ZM33.9758 31.1153L31.0703 34.0207L32.2646 35.215L35.17 32.3095L33.9758 31.1153ZM24.0025 22.3362L33.9758 32.3095L35.17 31.1153L25.1967 21.142L24.0025 22.3362ZM38.3154 20.8946L24.5996 20.8946V22.5836L38.3154 22.5836V20.8946ZM37.471 17.5838V21.7391H39.1599V17.5838H37.471ZM24.5996 18.4283L38.3154 18.4283V16.7393H24.5996V18.4283ZM33.9685 7.02068L24.0025 16.9867L25.1967 18.1809L35.1627 8.21493L33.9685 7.02068ZM31.0614 5.30785L33.9685 8.21493L35.1627 7.02068L32.2556 4.11359L31.0614 5.30785ZM22.2909 15.2726L32.2556 5.30785L31.0614 4.11359L21.0967 14.0783L22.2909 15.2726ZM20.8493 0.962524V14.6754H22.5383V0.962524L20.8493 0.962524Z" fill="black" mask="url(#path-1-inside-1_1_2195)"/>
<defs>
<linearGradient id="paint0_linear_1_2195" x1="0.927543" y1="19.6539" x2="38.313" y2="19.6539" gradientUnits="userSpaceOnUse">
<stop stop-color="#991EEB"/>
<stop offset="0.399" stop-color="#5822B4"/>
<stop offset="0.727" stop-color="#5822B4"/>
<stop offset="1" stop-color="#991EEB"/>
</linearGradient>
</defs>
</svg>
