<svg width="25" height="25" viewBox="0 0 25 25" fill="none" xmlns="http://www.w3.org/2000/svg">
<path fill-rule="evenodd" clip-rule="evenodd" d="M12.0948 2.2616C17.4648 2.2616 21.8328 6.6296 21.8328 11.9996C21.8328 14.5331 20.8605 16.8439 19.2694 18.5781L22.4002 21.7023C22.6932 21.9953 22.6942 22.4693 22.4012 22.7623C22.2552 22.9103 22.0622 22.9833 21.8702 22.9833C21.6792 22.9833 21.4872 22.9103 21.3402 22.7643L18.1716 19.6046C16.5048 20.9394 14.3914 21.7386 12.0948 21.7386C6.72476 21.7386 2.35576 17.3696 2.35576 11.9996C2.35576 6.6296 6.72476 2.2616 12.0948 2.2616ZM12.0948 3.7616C7.55176 3.7616 3.85576 7.4566 3.85576 11.9996C3.85576 16.5426 7.55176 20.2386 12.0948 20.2386C16.6368 20.2386 20.3328 16.5426 20.3328 11.9996C20.3328 7.4566 16.6368 3.7616 12.0948 3.7616Z" fill="white"/>
</svg>
